<svg width="137" height="24" viewBox="0 0 137 24" fill="none" xmlns="http://www.w3.org/2000/svg">
<path d="M0.35 0.919998H15.23V5.12H9.86V23H5.51V5.12H0.35V0.919998ZM15.151 23L25.111 0.0499986H25.351L35.311 23H30.271L23.911 6.86L27.061 4.7L19.441 23H15.151ZM21.961 15.02H28.591L30.121 18.68H20.611L21.961 15.02ZM38.5297 0.919998H52.3297V5.12H42.8797V10.13H51.0697V14.33H42.8797V23H38.5297V0.919998ZM60.418 14.84C60.418 15.54 60.628 16.21 61.048 16.85C61.468 17.49 62.018 18.01 62.698 18.41C63.398 18.81 64.158 19.01 64.978 19.01C65.878 19.01 66.678 18.81 67.378 18.41C68.078 18.01 68.628 17.49 69.028 16.85C69.448 16.21 69.658 15.54 69.658 14.84V0.919998H73.948V14.93C73.948 16.55 73.548 17.99 72.748 19.25C71.948 20.49 70.868 21.47 69.508 22.19C68.148 22.89 66.638 23.24 64.978 23.24C63.338 23.24 61.838 22.89 60.478 22.19C59.138 21.47 58.068 20.49 57.268 19.25C56.468 17.99 56.068 16.55 56.068 14.93V0.919998H60.418V14.84ZM83.6038 8.78L83.4838 9.89L84.1438 9.05L91.3438 0.919998H96.9838L87.8638 10.82L97.0138 23H91.4937L84.6838 13.58L83.6038 14.66V23H79.1938V0.919998H83.6038V8.78ZM104.217 14.84C104.217 15.54 104.427 16.21 104.847 16.85C105.267 17.49 105.817 18.01 106.497 18.41C107.197 18.81 107.957 19.01 108.777 19.01C109.677 19.01 110.477 18.81 111.177 18.41C111.877 18.01 112.427 17.49 112.827 16.85C113.247 16.21 113.457 15.54 113.457 14.84V0.919998H117.747V14.93C117.747 16.55 117.347 17.99 116.547 19.25C115.747 20.49 114.667 21.47 113.307 22.19C111.947 22.89 110.437 23.24 108.777 23.24C107.137 23.24 105.637 22.89 104.277 22.19C102.937 21.47 101.867 20.49 101.067 19.25C100.267 17.99 99.8668 16.55 99.8668 14.93V0.919998H104.217V14.84ZM121.493 0.919998H136.373V5.12H131.003V23H126.653V5.12H121.493V0.919998Z" fill="#6BCC60"/>
</svg>
